<?xml version="1.0" ?><svg width="100px" height="100px" viewBox="0 0 100 100" style="enable-background:new 0 0 100 100;" version="1.1" xml:space="preserve" xmlns="http://www.w3.org/2000/svg" xmlns:xlink="http://www.w3.org/1999/xlink"><style type="text/css">
	.st0{display:none;}
	.st1{display:inline;fill:none;}
</style><g class="st0" id="bounding_squares"><rect class="st1" height="100" id="XMLID_27_" width="100"/></g><g id="icons"><path d="M85.7890625,54.8359375C77.3505859,46.3974609,66.1308594,41.75,54.1972656,41.75h-5.3792725   C48.8544922,41.3796997,48.875,41.0046997,48.875,40.625c0-6.2724609-5.1025391-11.375-11.375-11.375   s-11.375,5.1025391-11.375,11.375S31.2275391,52,37.5,52c4.4277344,0,8.2626953-2.5480957,10.1413574-6.25H48v15.921875   l-8.7890625,8.7890625c-0.78125,0.78125-0.78125,2.046875,0,2.828125C39.6015625,73.6796875,40.1132813,73.875,40.625,73.875   s1.0234375-0.1953125,1.4140625-0.5859375l9.375-9.375C51.7890625,63.5390625,52,63.0302734,52,62.5V45.75h2.1972656   c10.2126465,0,19.8496094,3.7399292,27.3511963,10.5688477C74.0074463,64.5673828,69.875,75.1792603,69.875,86.4277344V90.625   c0,1.1044922,0.8955078,2,2,2s2-0.8955078,2-2v-4.1972656c0-10.8652344,4.2314453-21.0800781,11.9140625-28.7636719   C86.5703125,56.8828125,86.5703125,55.6171875,85.7890625,54.8359375z M37.5,48c-4.0664063,0-7.375-3.3085938-7.375-7.375   s3.3085938-7.375,7.375-7.375s7.375,3.3085938,7.375,7.375S41.5664063,48,37.5,48z"/><path d="M28.125,57.375c-5.4101563,0-9.8125,4.4023438-9.8125,9.8125c0,4.7248535,3.3581543,8.6798706,7.8125,9.6063232v0.0948486   l-5.1445313,2.5722656c-0.9882813,0.4941406-1.3886719,1.6953125-0.8945313,2.6835938   C20.4365234,82.8457031,21.1425781,83.25,21.8769531,83.25c0.2998047,0,0.6054688-0.0673828,0.8925781-0.2109375L26.125,81.3613281   v2.2453003C24.1101074,85.9129028,23,88.8278809,23,91.9189453V93.75c0,1.1044922,0.8955078,2,2,2s2-0.8955078,2-2v-1.8310547   c0-1.5195923,0.3951416-2.9758911,1.125-4.2628174c0.7298584,1.2869263,1.125,2.7432251,1.125,4.2628174V93.75   c0,1.1044922,0.8955078,2,2,2s2-0.8955078,2-2v-1.8310547c0-3.0910645-1.1101074-6.0060425-3.125-8.3123169v-6.8128052   c4.4543457-0.9264526,7.8125-4.8814697,7.8125-9.6063232C37.9375,61.7773438,33.5351563,57.375,28.125,57.375z M28.125,73   c-3.2050781,0-5.8125-2.6074219-5.8125-5.8125s2.6074219-5.8125,5.8125-5.8125s5.8125,2.6074219,5.8125,5.8125   S31.3300781,73,28.125,73z"/></g></svg>