<?xml version="1.0" ?><svg width="100px" height="100px" viewBox="0 0 100 100" style="enable-background:new 0 0 100 100;" version="1.1" xml:space="preserve" xmlns="http://www.w3.org/2000/svg" xmlns:xlink="http://www.w3.org/1999/xlink"><style type="text/css">
	.st0{display:none;}
	.st1{display:inline;fill:none;}
	.st2{display:inline;}
</style><g class="st0" id="bounding_squares"><rect class="st1" height="100" id="XMLID_8_" width="100"/></g><g id="icons"><g class="st0"/><path d="M81.25,91.75H54.828125l2.4570313-2.4570313C61.1826172,85.3959961,66.3632813,83.25,71.875,83.25   c1.1044922,0,2-0.8955078,2-2c0-0.5526733-0.2243652-1.0529175-0.5866699-1.414917   C69.6364746,76.1824341,67.625,71.3262329,67.625,66.1611328V54.9378052C72.9453125,53.9885864,77,49.338623,77,43.75   c0-6.2719727-5.1025391-11.375-11.375-11.375S54.25,37.4780273,54.25,43.75c0,5.588623,4.0546875,10.2385864,9.375,11.1878052   v0.4840698L52.296875,66.75H39.5V62.5c0-1.1044922-0.8955078-2-2-2h-9.375c-1.1044922,0-2,0.8955078-2,2v9.375   c0,0.4173584,0.12854,0.8043823,0.347168,1.125H21.875c-1.1044922,0-2,0.8955078-2,2v7.375H18.75c-1.1044922,0-2,0.8955078-2,2   v9.375c0,1.1044922,0.8955078,2,2,2h9.375H37.5c1.1044922,0,2-0.8955078,2-2v-9.375c0-1.1044922-0.8955078-2-2-2h-4.25V75   c0-0.4173584-0.12854-0.8043823-0.347168-1.125H37.5c1.1044922,0,2-0.8955078,2-2V70.75h13.625   c0.5302734,0,1.0390625-0.2109375,1.4140625-0.5859375L63.625,61.078125v5.0830078   c0,4.8735352,1.4899902,9.5155029,4.2437744,13.4171753c-5.0565186,0.8223877-9.7181396,3.1925659-13.4117432,6.8865356   l-5.8710938,5.8710938c-0.78125,0.7807617-0.78125,2.0473633,0,2.828125C48.9765625,95.5546875,49.4882813,95.75,50,95.75h31.25   c1.1044922,0,2-0.8955078,2-2S82.3544922,91.75,81.25,91.75z M20.75,86.375h5.375v5.375H20.75V86.375z M35.5,91.75h-5.375v-5.375   H35.5V91.75z M28.125,82.375h-4.25V77h5.375v5.375H28.125z M35.5,69.875h-5.375V64.5H35.5V69.875z M58.25,43.75   c0-4.0664063,3.3085938-7.375,7.375-7.375S73,39.6835938,73,43.75s-3.3085938,7.375-7.375,7.375S58.25,47.8164063,58.25,43.75z"/></g></svg>