<?xml version="1.0" ?><svg width="100px" height="100px" viewBox="0 0 100 100" id="icons" style="enable-background:new 0 0 100 100;" version="1.1" xml:space="preserve" xmlns="http://www.w3.org/2000/svg" xmlns:xlink="http://www.w3.org/1999/xlink"><path d="M54.5419922,29.8388672l-3.1279297-3.1279297c-0.1135254-0.1135254-0.2393188-0.2055664-0.3703003-0.2860718  C51.6552734,25.0300903,52,23.4929199,52,21.875C52,15.6025391,46.8974609,10.5,40.625,10.5S29.25,15.6025391,29.25,21.875  S34.3525391,33.25,40.625,33.25c3.2116699,0,6.1107178-1.3432617,8.1810303-3.4908447l2.2992554,2.2992554  c-0.1942139,8.7889404-3.5426025,17.046936-9.5128174,23.4746094l-6.1080933-4.0720825  c-0.9199219-0.6142578-2.1611328-0.3642578-2.7734375,0.5546875s-0.3642578,2.1611328,0.5546875,2.7734375l5.5693359,3.7128906  c-0.3635864,0.7457886-0.2438354,1.6672974,0.3759766,2.2871094C39.6015625,61.1796875,40.1132813,61.375,40.625,61.375  s1.0234375-0.1953125,1.4140625-0.5859375l0.0906372-0.0906372l0.5109253,0.3406372  C42.9814453,61.2666016,43.3671875,61.375,43.7480469,61.375c0.6464844,0,1.2802734-0.3125,1.6660156-0.890625  c0.5889282-0.8838501,0.3751831-2.0609131-0.4591064-2.6948242c5.4450684-6.0484619,8.8375854-13.500061,9.8442383-21.5058594  C58.4983521,41.3693848,60.5,47.4692383,60.5,53.8789063V93.75c0,1.1044922,0.8955078,2,2,2s2-0.8955078,2-2V53.8789063  C64.5,44.7978516,60.9638672,36.2597656,54.5419922,29.8388672z M40.625,29.25c-4.0664063,0-7.375-3.3085938-7.375-7.375  s3.3085938-7.375,7.375-7.375S48,17.8085938,48,21.875S44.6914063,29.25,40.625,29.25z"/></svg>