<?xml version="1.0" ?><svg width="100px" height="100px" viewBox="0 0 100 100" id="icons" style="enable-background:new 0 0 100 100;" version="1.1" xml:space="preserve" xmlns="http://www.w3.org/2000/svg" xmlns:xlink="http://www.w3.org/1999/xlink"><path d="M88.9140625,17.3359375c-0.6938477-0.6938477-1.7679443-0.7680054-2.5472412-0.2294312  C86.3225098,15.1798706,84.7495728,13.625,82.8124847,13.625C80.8476563,13.625,79.25,15.2226563,79.25,17.1875  c0,1.9210815,1.5302734,3.4805908,3.4348145,3.5495605L71.3349609,32.0869141l-15.9436646-5.3148193  C60.5814209,25.7185669,64.5,21.121521,64.5,15.625c0-6.2724609-5.1025391-11.375-11.375-11.375S41.75,9.3525391,41.75,15.625  c0,4.7250977,2.8967285,8.7838135,7.0067139,10.5H15.625c-1.1044922,0-2,0.8955078-2,2s0.8955078,2,2,2h35.5v11.0361328  c0,5.1660156-2.0117188,10.0224609-5.6640625,13.6748047c-9.4462891,9.4462891-14.6484489,22.0048828-14.6484489,35.3642578V93.75  c0,1.1044922,0.8955193,2,2,2c1.1045036,0,2-0.8955078,2-2v-3.5498047c0-10.567688,3.5468254-20.5855103,10.0625114-28.7120972V75  c0,1.1044922,0.8955078,2,2,2H68.75c1.1044922,0,2-0.8955078,2-2s-0.8955078-2-2-2H48.875V57.0488892  c4.0339966-4.3314819,6.25-9.9376221,6.25-15.8877563V30.9000854l16.1171875,5.3723755  C71.4501953,36.3417969,71.6630859,36.375,71.875,36.375c0.5214844,0,1.0332031-0.2050781,1.4140625-0.5859375l15.625-15.625  C89.6953125,19.3828125,89.6953125,18.1171875,88.9140625,17.3359375z M45.75,15.625c0-4.0664063,3.3085938-7.375,7.375-7.375  s7.375,3.3085938,7.375,7.375S57.1914063,23,53.125,23S45.75,19.6914063,45.75,15.625z M82.375,17.1875  c0-0.2412109,0.1962891-0.4375,0.4374847-0.4375C83.0537109,16.75,83.25,16.9462891,83.25,17.1875  s-0.1962891,0.4375-0.4375153,0.4375C82.5712891,17.625,82.375,17.4287109,82.375,17.1875z"/></svg>