<?xml version="1.0" ?><svg width="100px" height="100px" viewBox="0 0 100 100" style="enable-background:new 0 0 100 100;" version="1.1" xml:space="preserve" xmlns="http://www.w3.org/2000/svg" xmlns:xlink="http://www.w3.org/1999/xlink"><style type="text/css">
	.st0{display:none;}
	.st1{display:inline;fill:none;}
</style><g class="st0" id="bounding_squares"><rect class="st1" height="100" id="XMLID_41_" width="100"/></g><g id="icons"><path d="M62.5,73h-25c-1.1044922,0-2,0.8955078-2,2v15.625c0,1.1044922,0.8955078,2,2,2h25c1.1044922,0,2-0.8955078,2-2V75   C64.5,73.8955078,63.6044922,73,62.5,73z M60.5,88.625h-21V77h21V88.625z"/><path d="M68.75,66.75h-7.7318115c0.4703979-0.687439,0.4845581-1.62146-0.0430908-2.3251953l-6.9950562-9.3267212   l6.809021-6.809021c0.78125-0.78125,0.78125-2.046875,0-2.828125c-0.2213745-0.2216797-0.4837036-0.3731689-0.7612915-0.4690552   l1.2446899-3.7340698c0.3491211-1.0478516-0.2172852-2.1806641-1.2651367-2.5302734   c-1.0424805-0.3486328-2.1801758,0.2167969-2.5297852,1.2646484l-2.9760742,8.9282227l-2.9454956,2.9454956L42.625,39.9580078   v-0.6452026C47.9448853,38.3636475,52,33.7139893,52,28.125c0-6.2724609-5.1030273-11.375-11.375-11.375   S29.25,21.8525391,29.25,28.125c0,5.5889893,4.0551147,10.2386475,9.375,11.1878052v14.3483276   c0,6.2335815,2.427124,12.0931396,6.8342896,16.5011597C45.8213501,70.5252075,46.3218994,70.75,46.875,70.75H66.75v19.875   c0,1.1044922,0.8955078,2,2,2s2-0.8955078,2-2V68.75C70.75,67.6455078,69.8544922,66.75,68.75,66.75z M48.6985474,54.7233276   l-0.9495239,0.9495239l-1.3291626-3.9876709L48.6985474,54.7233276z M33.25,28.125c0-4.0664063,3.3085938-7.375,7.375-7.375   S48,24.0585938,48,28.125S44.6914063,35.5,40.625,35.5S33.25,32.1914063,33.25,28.125z M42.625,52.9501953l2.3525391,7.0576172   c0.2192383,0.6572266,0.7631836,1.1542969,1.4379883,1.3134766C46.5678711,61.3574219,46.722168,61.375,46.875,61.375   c0.5244141,0,1.034668-0.2060547,1.4140625-0.5859375l2.8335571-2.8335571L57.7185059,66.75h-9.9609375   C44.4539795,63.1702271,42.625,58.5615234,42.625,53.6611328V52.9501953z"/></g></svg>